<svg width="168" height="48" viewBox="0 0 168 48" fill="none" xmlns="http://www.w3.org/2000/svg">
<path d="M164.91 23.3494L167.264 16.28L157.13 18.4539C156.656 19.8882 156.066 21.6532 155.5 23.3494H151.167C151.062 23.5972 151.019 23.852 151.019 24.1259C151.019 25.4546 151.917 26.5629 153.433 27.0193C153.642 27.0822 153.908 27.1379 154.22 27.1864L153.811 28.418C152.789 31.4786 152.364 33.6845 152.364 34.9303C152.364 38.1131 154.329 39.9977 157.431 39.9977C158.966 39.9977 160.388 39.5284 162.497 37.8262C162.004 36.8281 161.772 35.8052 161.772 34.2085C161.772 33.2709 162.034 31.9788 162.497 30.5872C162.775 29.7645 163.149 28.629 163.586 27.3322H166.671L168 23.3494H164.91Z" fill="#E3000F"/>
<path d="M145.979 22.9843C142.964 22.9843 138.906 25.7343 138.645 26.2072L142.974 13.2122L133.025 15.3837L125.062 39.2733H134.292L137.188 30.587C137.946 28.3064 138.631 27.6936 139.714 27.6924H139.721C140.773 27.6924 141.164 28.6727 140.474 30.7329C140.332 31.1655 139.846 32.6223 139.432 33.8669C139.022 35.1009 138.918 35.69 138.918 36.5115C138.918 38.4329 140.284 39.9999 143.032 39.9999C144.641 39.9999 146.963 39.2105 148.572 37.9054C148.236 37.2203 148.058 36.3147 148.058 35.3C148.058 34.7311 148.274 33.6548 148.954 31.61C149.804 29.0615 149.96 28.0398 149.96 26.9706C149.96 24.236 148.753 22.9843 145.979 22.9843Z" fill="#E3000F"/>
<path d="M116.379 37.0995C114.042 37.0995 113.215 36.2685 113.644 33.8469H115.172C122.4 33.8469 127.001 31.4442 127.001 27.2576C127.001 24.7897 124.875 22.6228 119.031 22.6228C109.323 22.6228 104.921 27.6001 104.921 33.8469C104.921 37.5096 107.603 39.9977 113.243 39.9977C117.438 39.9977 120.929 38.9676 123.326 37.0924L122.786 35.6107C120.193 36.7937 118.66 37.0995 116.379 37.0995ZM114.329 31.3138C116.071 26.1712 116.755 25.5186 118.067 25.5186C119.153 25.5186 119.464 26.749 118.67 29.1399C118.14 30.7258 115.998 32.0368 114.098 32.0368C114.169 31.8045 114.245 31.562 114.329 31.3138Z" fill="#E3000F"/>
<path d="M108.758 13.2122L98.625 15.3837L94.282 28.4178C93.261 31.4784 92.8345 33.6844 92.8345 34.9302C92.8345 38.1129 94.8 39.9976 97.9005 39.9976C99.4335 39.9976 100.864 39.5282 102.968 37.8261C102.475 36.828 102.246 35.805 102.246 34.2083C102.246 33.2707 102.502 31.9786 102.968 30.587L108.758 13.2122Z" fill="#E3000F"/>
<path d="M93.024 23.3494H83.98L81.8095 29.8641C80.0205 35.2195 79.5455 35.6522 78.1895 35.6522C77.235 35.6522 76.8345 34.6529 78.1895 30.5871C78.7215 28.9893 79.6155 26.218 80.572 23.3494H71.5335L69.8455 28.4179C68.826 31.4785 68.417 33.6845 68.417 34.9303C68.417 38.113 70.385 39.9977 73.4845 39.9977C75.6325 39.9977 78.226 38.5421 80.009 37.454C80.72 39.0352 82.0395 40.0001 84.129 40.0001C85.658 40.0001 88.272 39.5283 90.369 37.8262C89.966 37.0094 89.7205 36.1548 89.7205 34.7525C89.7205 33.5044 90.005 32.4873 90.395 31.3139C90.9295 29.7124 92.078 26.2179 93.024 23.3494Z" fill="#E3000F"/>
<path d="M69.9145 23.3494H66.8245L69.181 16.28L59.0495 18.4539L57.415 23.3494H53.0815C52.9815 23.5972 52.933 23.852 52.933 24.1259C52.938 25.4546 53.834 26.5629 55.3475 27.0193C55.5565 27.0822 55.823 27.1379 56.137 27.1864C55.9795 27.6558 55.841 28.0731 55.7295 28.418C54.704 31.4786 54.2835 33.6845 54.2835 34.9303C54.2835 38.1131 56.244 39.9977 59.3485 39.9977C60.881 39.9977 62.307 39.5284 64.4145 37.8262C63.919 36.8281 63.689 35.8052 63.689 34.2085C63.689 33.2709 63.951 31.9788 64.4145 30.5872C64.6895 29.7645 65.064 28.629 65.5005 27.3322H68.5855L69.9145 23.3494Z" fill="#E3000F"/>
<path d="M47.7888 22.9843C44.7721 22.9843 40.7122 25.7343 40.4574 26.2072L44.7863 13.2122L34.8317 15.3837L26.8721 39.2733H36.0977L38.9935 30.587C39.7557 28.3064 40.4384 27.6936 41.5219 27.6924C42.5756 27.6913 42.9739 28.6727 42.2864 30.7329C42.1407 31.1655 41.6535 32.6223 41.2398 33.8669C40.8249 35.1009 40.7253 35.69 40.7253 36.5115C40.7253 38.4329 42.0944 39.9999 44.8373 39.9999C46.4482 39.9999 48.7703 39.2105 50.3775 37.9054C50.04 37.2203 49.8608 36.3147 49.8608 35.3C49.8608 34.7311 50.0815 33.6548 50.764 31.61C51.609 29.0615 51.7715 28.0398 51.7715 26.9706C51.7715 24.236 50.5625 22.9843 47.7888 22.9843Z" fill="#E3000F"/>
<path d="M18.5306 14.6606C9.1189 14.6606 0 20.3611 0 31.2189C0 36.553 4.8872 39.9999 10.0874 39.9999C19.4979 39.9999 28.6192 34.2984 28.6192 23.4429C28.6192 18.1065 23.7296 14.6606 18.5306 14.6606ZM16.5807 27.3321C13.8402 35.5525 13.0662 36.4795 11.2585 36.4795C9.74005 36.4795 9.2837 35.5525 12.0267 27.3321C14.7684 19.1057 15.5507 18.1776 17.356 18.1776C18.878 18.1776 19.3224 19.1057 16.5807 27.3321Z" fill="#E3000F"/>
<path d="M18.5306 12.2235C21.6113 12.2235 24.5403 13.2321 26.7853 15.0611C26.8873 15.1489 26.9869 15.2402 27.0912 15.3255C28.7115 14.5124 29.8578 13.1124 29.8578 10.5935C29.8578 9.7271 29.3374 8.52985 28.6843 8C28.1592 8.39355 27.6175 8.66735 26.7794 8.91985C26.284 9.0656 25.6047 9.14505 24.871 9.14505H13.7169C12.1012 9.14505 10.936 9.292 10.2841 9.4864C8.31759 10.0791 7.59814 11.1092 7.59814 12.4059C7.59814 13.2653 7.8897 13.9919 8.3556 14.4482C11.39 12.9985 14.8797 12.2235 18.5306 12.2235Z" fill="#E3000F"/>
</svg>
